<?xml version="1.0" encoding="UTF-8"?><svg xmlns="http://www.w3.org/2000/svg" width="345.2302" height="77.0037" xmlns:xlink="http://www.w3.org/1999/xlink" viewBox="0 0 345.2302 77.0037"><defs><clipPath id="uuid-6e641307-0bf6-4776-911d-452ba9e72e41"><rect width="84.4416" height="77.0037" fill="none"/></clipPath><clipPath id="uuid-102ca7f1-1568-4844-bb78-d056bae607ec"><rect width="84.4416" height="77.0037" fill="none"/></clipPath><clipPath id="uuid-213f8d6a-8e7b-47c4-9b84-6a34b9563fff"><rect width="84.4416" height="77.0037" fill="none"/></clipPath></defs><g id="uuid-0e281bb0-e791-4cd3-ad0b-9a8f919d4fed"><path d="m109.1677,22.3944v7.4873h9.0718v3.4922h-9.0718v10.7285h-4.5361v-25.2002h15.1201v3.4922h-10.584Z"/><path d="m137.8229,24.9501v19.1523h-3.7798l-.3237-2.124c-1.584,1.7275-3.5049,2.5918-5.7603,2.5918-1.1284,0-2.1548-.2393-3.0781-.7197-.9243-.4805-1.6558-1.1582-2.1958-2.0342s-.8101-1.9014-.8101-3.0771v-13.7891h4.4639v13.5723c0,.8643.228,1.5303.6841,1.998.4556.4688,1.1279.7021,2.0156.7021.792,0,1.5723-.2158,2.3403-.6475.7681-.4326,1.4277-1.0322,1.98-1.8008v-13.8242h4.4639Z"/><path d="m144.2346,43.8866c-1.3442-.4561-2.5083-1.1045-3.4917-1.9443l2.124-2.5557c.8398.624,1.6914,1.0928,2.5557,1.4033.8643.3125,1.8115.4688,2.8438.4688,2.4238,0,3.6362-.6963,3.6362-2.0879v-.2891c0-.623-.2163-1.1211-.6479-1.4932-.4321-.3721-1.2842-.7744-2.5557-1.2061l-2.4121-.8281c-1.5605-.5518-2.7183-1.2178-3.4746-1.998-.7559-.7793-1.1338-1.7578-1.1338-2.9336v-.793c0-1.0078.3115-1.9014.936-2.6816.624-.7793,1.4878-1.3906,2.5923-1.8359,1.1035-.4434,2.3516-.666,3.7441-.666,1.3677,0,2.6816.2109,3.9414.6309,1.2603.4199,2.3457,1.0137,3.2583,1.7812l-2.0522,2.4482c-.9121-.5996-1.7461-1.0088-2.502-1.2236-.7559-.2168-1.5898-.3242-2.502-.3242-.96,0-1.6919.1738-2.1958.5215-.5044.3486-.7563.7871-.7563,1.3145v.2871c0,.5293.2163.9727.6484,1.332.4316.3613,1.2476.7568,2.4478,1.1885l2.4121.8281c1.5356.5518,2.6997,1.2119,3.4917,1.9795.792.7695,1.1885,1.8242,1.1885,3.168v.793c0,1.7041-.7324,3.0293-2.1963,3.9775s-3.2881,1.4219-5.4717,1.4219c-1.6084,0-3.0845-.2275-4.4282-.6836Z"/><path d="m165.7731,44.1025h-4.4639v-15.8398h-2.8804v-3.3125h7.3442v19.1523Zm-4.3203-22.9141c-.5283-.5156-.792-1.1455-.792-1.8906,0-.7432.2637-1.3789.792-1.9072.5278-.5283,1.1641-.792,1.9082-.792.7437,0,1.3799.2578,1.9082.7734.5273.5176.792,1.1582.792,1.9258,0,.7451-.2646,1.375-.792,1.8906-.5283.5166-1.1646.7734-1.9082.7734-.7441,0-1.3804-.2568-1.9082-.7734Z"/><path d="m183.1638,25.5985c1.3682.7676,2.3999,1.8359,3.0967,3.2041.6953,1.3682,1.0439,2.9404,1.0439,4.7158v1.9434c0,2.7607-.792,4.9688-2.376,6.625s-3.8164,2.4834-6.6963,2.4834c-2.8564,0-5.0645-.8271-6.624-2.4834-1.5605-1.6562-2.3398-3.8643-2.3398-6.625v-1.9434c0-1.7754.3418-3.3477,1.0259-4.7158s1.6978-2.4365,3.042-3.2041c1.3438-.7676,2.9756-1.1523,4.896-1.1523s3.564.3848,4.9316,1.1523Zm-8.2793,3.6543c-.7686.9473-1.1523,2.3457-1.1523,4.1934v2.0156c0,1.8965.3779,3.3301,1.1338,4.3027.7559.9717,1.8779,1.458,3.3662,1.458s2.6279-.4863,3.4199-1.458c.792-.9727,1.188-2.4062,1.188-4.3027v-2.0156c0-1.8232-.396-3.2148-1.188-4.1758-.792-.959-1.9321-1.4395-3.4199-1.4395-1.4639,0-2.5801.4736-3.3477,1.4219Z"/><path d="m205.152,26.1386c1.1641,1.1279,1.7461,2.7002,1.7461,4.7158v13.248h-4.4639v-12.8887c0-2.2549-.9961-3.3828-2.9883-3.3828-1.6318,0-3.0117.791-4.1396,2.375v13.8965h-4.4639v-19.1523h3.8159l.2876,1.9443c1.3682-1.6318,3.2637-2.4482,5.6885-2.4482,1.8477,0,3.3535.5645,4.5176,1.6924Z"/><path d="m245.5261,18.9023v25.2002h-4.3564v-18.3242l-5.292,14.6875.0361.0371h-4.7881l-5.3999-15.3008v18.9004h-4.104v-25.2002h5.8682l6.1558,17.7842,6.3359-17.748-.0356-.0361h5.5801Z"/><path d="m263.4245,26.2284c1.2476,1.1885,1.8721,2.8389,1.8721,4.9502v12.9238h-3.4922l-.3599-1.8359c-1.5601,1.5361-3.4561,2.3037-5.688,2.3037-1.1523,0-2.2139-.2217-3.186-.666-.9722-.4434-1.7461-1.0791-2.3218-1.9072-.5762-.8281-.8643-1.7832-.8643-2.8623v-1.2607c0-1.6797.708-3.0234,2.124-4.0312s3.3599-1.5117,5.832-1.5117h3.5283v-1.2969c0-1.127-.2827-1.9492-.8467-2.4658-.5635-.5156-1.4219-.7744-2.5737-.7744-1.0078,0-1.9502.1211-2.8257.3613-.877.2393-1.7949.5996-2.7539,1.0791l-1.3682-2.7725c2.208-1.3438,4.6558-2.0156,7.3438-2.0156,2.4717,0,4.332.5938,5.5801,1.7822Zm-4.4819,14.5615c.7319-.3105,1.3735-.7793,1.9263-1.4033v-4.248h-3.0967c-2.6396,0-3.96.9717-3.96,2.916v.7197c0,.7686.2344,1.375.7021,1.8184.4683.4443,1.1699.666,2.1064.666.8154,0,1.5894-.1562,2.3218-.4688Z"/><path d="m283.9841,26.1386c1.1641,1.1279,1.7461,2.7002,1.7461,4.7158v13.248h-4.4639v-12.8887c0-2.2549-.9961-3.3828-2.9883-3.3828-1.6323,0-3.0122.791-4.1396,2.375v13.8965h-4.4644v-19.1523h3.8159l.2881,1.9443c1.3682-1.6318,3.2637-2.4482,5.688-2.4482,1.8481,0,3.354.5645,4.5181,1.6924Z"/><path d="m302.7575,26.2284c1.2476,1.1885,1.8721,2.8389,1.8721,4.9502v12.9238h-3.4922l-.3599-1.8359c-1.5601,1.5361-3.4561,2.3037-5.688,2.3037-1.1523,0-2.2139-.2217-3.186-.666-.9722-.4434-1.7461-1.0791-2.3218-1.9072-.5762-.8281-.8643-1.7832-.8643-2.8623v-1.2607c0-1.6797.708-3.0234,2.124-4.0312s3.3599-1.5117,5.832-1.5117h3.5283v-1.2969c0-1.127-.2827-1.9492-.8467-2.4658-.5635-.5156-1.4219-.7744-2.5737-.7744-1.0078,0-1.9502.1211-2.8257.3613-.877.2393-1.7949.5996-2.7539,1.0791l-1.3682-2.7725c2.208-1.3438,4.6558-2.0156,7.3438-2.0156,2.4717,0,4.332.5938,5.5801,1.7822Zm-4.4819,14.5615c.7319-.3105,1.3735-.7793,1.9263-1.4033v-4.248h-3.0967c-2.6396,0-3.96.9717-3.96,2.916v.7197c0,.7686.2344,1.375.7021,1.8184.4683.4443,1.1699.666,2.1064.666.8154,0,1.5894-.1562,2.3218-.4688Z"/><path d="m324.8796,24.9501v19.2246c0,1.6074-.3721,2.9814-1.1162,4.1211-.7441,1.1406-1.7578,2.0039-3.042,2.5928-1.2842.5879-2.7305.8818-4.3379.8818-2.7598,0-5.1479-.5996-7.1641-1.7998l1.4043-2.7002c.8398.3838,1.6855.6719,2.5381.8643.8516.1914,1.8179.2881,2.8975.2881,2.9761,0,4.4644-1.4287,4.4644-4.2842v-2.4121c-1.4165,1.584-3.1201,2.376-5.1118,2.376-2.1602,0-3.9238-.7441-5.292-2.2324-1.3682-1.4873-2.0522-3.7314-2.0522-6.7314v-1.6201c0-1.9434.3477-3.5938,1.0439-4.9502.6958-1.3555,1.6255-2.3818,2.79-3.0771,1.1636-.6963,2.4175-1.0449,3.7622-1.0449,1.1035,0,2.0752.1797,2.916.54.8398.3604,1.6074.9131,2.3037,1.6562l.3242-1.6924h3.6719Zm-6.4082,15.2109c.7202-.373,1.356-.9062,1.9082-1.6025v-8.8193c-1.0566-1.2725-2.3643-1.9082-3.9238-1.9082-2.6162,0-3.9238,1.8594-3.9238,5.5801v1.7275c0,2.0645.3115,3.5098.9355,4.3379s1.5239,1.2422,2.7002,1.2422c.8154,0,1.584-.1865,2.3037-.5576Z"/><path d="m345.0861,35.9306h-12.3481c.0234,1.8242.4561,3.1621,1.2959,4.0137.8398.8525,2.1001,1.2783,3.7803,1.2783.936,0,1.7939-.1377,2.5742-.4141.7793-.2764,1.6255-.666,2.5381-1.1699l1.584,2.6641c-.8643.6475-1.9146,1.1885-3.1504,1.6201-1.2363.4316-2.5146.6475-3.834.6475-1.8965,0-3.5342-.3896-4.9141-1.1699-1.3804-.7793-2.4297-1.8477-3.1499-3.2041-.7202-1.3555-1.0801-2.9102-1.0801-4.6621v-1.9795c0-1.7275.3477-3.2822,1.0444-4.6621.6953-1.3799,1.6914-2.4658,2.9873-3.2578,1.2964-.792,2.8086-1.1885,4.5361-1.1885,2.6401,0,4.6802.7988,6.1201,2.3945,1.4404,1.5957,2.1602,3.9062,2.1602,6.9297,0,.6719-.0483,1.3926-.144,2.1602Zm-3.8521-3.0957c0-1.6562-.3599-2.9219-1.0801-3.7988-.7197-.875-1.7764-1.3135-3.168-1.3135-1.3682,0-2.4062.4443-3.1143,1.332s-1.0859,2.208-1.1338,3.96h8.4961v-.1797Z"/></g><g id="uuid-12a209ac-0d52-4ff3-b12f-75756b84d950"><g clip-path="url(#uuid-6e641307-0bf6-4776-911d-452ba9e72e41)" fill="none"><g clip-path="url(#uuid-102ca7f1-1568-4844-bb78-d056bae607ec)" fill="none"><path d="m13.6308.0379l.02-.0339,64.1293,14.1717h6.6615v62.8281H11.9881c-2.513,0-4.5502-2.0372-4.5502-4.5502v-6.1561L13.6308.0379Z" fill="#933c00"/><path d="m78.2288,63.0031H13.6308V.0379l.0199-.0379h60.0279c2.513,0,4.5502,2.0372,4.5502,4.5502v58.4528Z" fill="#ff6b00"/><polygon points="0 71.2285 13.6507 63.0031 13.6507 0 0 8.2254 0 71.2285" fill="#ff9548"/></g><g clip-path="url(#uuid-213f8d6a-8e7b-47c4-9b84-6a34b9563fff)" fill="none"><path d="m45.2424,20.3818v8.3301h11.4727v6.1855h-11.4727v14.1162h-8.7295V14.0966h22.2969v6.2852h-13.5674Z" fill="#fff"/></g></g></g></svg>